<?xml version="1.0" standalone="no"?>
<!DOCTYPE svg PUBLIC "-//W3C//DTD SVG 20010904//EN"
 "http://www.w3.org/TR/2001/REC-SVG-20010904/DTD/svg10.dtd">
<svg version="1.0" xmlns="http://www.w3.org/2000/svg"
 width="530.000000pt" height="530.000000pt" viewBox="0 0 530.000000 530.000000"
 preserveAspectRatio="xMidYMid meet">
<metadata>
Created by potrace 1.14, written by Peter Selinger 2001-2017
</metadata>
<g transform="translate(0.000000,530.000000) scale(0.100000,-0.100000)"
fill="#000000" stroke="none">
<path d="M1766 4899 c-13 -13 -23 -16 -30 -9 -6 6 -14 6 -21 0 -6 -5 -42 -12
-80 -15 -51 -4 -73 -10 -87 -25 -10 -11 -30 -20 -44 -20 -21 0 -24 -4 -19 -20
7 -22 -5 -26 -22 -9 -15 15 -77 3 -98 -18 -9 -8 -37 -23 -63 -33 -46 -18 -47
-19 -46 -60 1 -41 1 -42 -15 -21 -18 24 -31 19 -31 -11 0 -10 -7 -18 -16 -18
-10 0 -14 -6 -11 -14 3 -8 -1 -20 -9 -26 -11 -10 -14 -9 -14 3 0 10 -6 14 -15
11 -8 -4 -15 -15 -15 -26 0 -10 -4 -17 -9 -14 -5 3 -12 -5 -15 -19 -4 -14 -10
-25 -15 -25 -5 0 -7 -10 -3 -22 4 -16 2 -20 -10 -15 -19 7 -31 -26 -15 -42 7
-7 6 -12 -5 -16 -13 -5 -15 -18 -13 -62 4 -53 -6 -90 -28 -104 -5 -4 -10 -52
-10 -107 -1 -74 -4 -103 -14 -106 -19 -8 -16 -36 4 -36 15 0 14 -2 -2 -14 -11
-8 -22 -13 -25 -11 -13 8 -1 -178 14 -216 9 -22 13 -45 10 -51 -4 -6 -3 -13 2
-17 14 -9 34 -94 25 -106 -4 -5 -7 -17 -6 -25 1 -8 -2 -25 -7 -37 -4 -13 -3
-25 2 -28 6 -4 10 -18 10 -33 -1 -34 -35 -77 -52 -65 -20 12 -32 10 -47 -10
-8 -11 -21 -17 -31 -14 -14 3 -17 1 -13 -11 5 -12 1 -14 -20 -10 -16 3 -31 0
-38 -8 -6 -8 -16 -14 -21 -14 -5 0 -24 -11 -42 -25 -18 -14 -35 -22 -38 -19
-4 3 -20 -2 -36 -10 -27 -14 -97 -24 -187 -28 -16 0 -34 -6 -40 -13 -11 -12
-84 -38 -100 -35 -27 6 -86 -1 -81 -9 9 -13 -14 -18 -66 -14 -28 2 -51 -2 -60
-9 -7 -7 -24 -15 -38 -16 -13 -2 -29 -10 -35 -18 -5 -8 -24 -18 -40 -22 l-30
-8 -3 -1562 -2 -1562 2650 0 2650 0 0 709 c0 697 -1 709 -20 714 -11 3 -20 12
-20 21 0 20 -9 20 -32 -1 -17 -15 -18 -15 -18 0 0 10 9 26 21 38 20 20 21 20
34 2 8 -10 15 -23 15 -30 0 -6 5 -15 10 -18 7 -4 10 125 10 379 0 336 -2 386
-15 386 -8 0 -15 7 -15 15 0 8 -7 15 -16 15 -8 0 -13 4 -10 9 3 4 -5 23 -18
40 -22 30 -25 31 -35 14 -9 -15 -10 -16 -11 -2 0 18 26 33 41 23 5 -3 9 0 9 5
0 6 -7 11 -15 11 -8 0 -24 18 -35 39 -11 22 -29 42 -40 46 -29 9 -47 52 -45
108 2 42 -1 48 -22 53 -26 7 -31 35 -8 54 9 7 13 21 10 31 -3 9 -2 20 3 23 5
3 9 16 10 29 0 20 -6 24 -29 25 -16 0 -36 8 -45 17 -9 8 -29 22 -45 30 -16 9
-29 22 -29 29 0 7 -7 19 -15 26 -14 12 -11 58 5 70 12 10 8 48 -6 54 -8 3 -14
11 -14 19 0 13 -31 46 -59 62 -10 6 -11 2 -6 -15 6 -18 3 -21 -12 -18 -10 2
-17 11 -15 20 1 9 -2 19 -8 23 -5 3 -10 -1 -10 -9 0 -9 -4 -16 -9 -16 -13 0
-33 28 -28 38 9 14 -11 37 -35 39 -13 0 -32 4 -44 8 -12 4 -27 1 -35 -7 -17
-16 -94 -15 -115 3 -12 10 -15 10 -12 -2 2 -10 -8 -15 -35 -17 -25 -2 -37 1
-35 9 4 14 -50 31 -58 18 -3 -5 -10 -7 -15 -3 -14 8 41 60 71 68 30 7 66 33
58 42 -4 3 -18 -2 -33 -12 -45 -30 -125 -64 -125 -54 0 6 -7 10 -15 10 -9 0
-12 -6 -8 -17 4 -11 3 -14 -6 -9 -7 5 -23 -5 -40 -23 -16 -17 -32 -31 -36 -31
-4 0 -21 -12 -38 -26 -17 -15 -38 -23 -49 -21 -10 3 -16 2 -13 -3 3 -4 -6 -11
-19 -14 -28 -7 -84 10 -108 33 -9 9 -23 21 -31 27 -8 7 -24 24 -35 39 -17 22
-25 25 -36 16 -13 -11 -21 0 -24 33 0 5 -4 12 -9 15 -5 3 -18 22 -30 42 -29
50 -55 79 -72 79 -12 0 -101 83 -101 95 0 9 -34 45 -43 45 -4 0 -17 9 -29 20
-12 10 -25 17 -30 14 -5 -4 -16 3 -24 14 -9 14 -21 19 -31 15 -11 -4 -14 -3
-9 5 4 7 3 12 -2 12 -5 0 -12 9 -15 21 -3 12 -9 19 -14 16 -4 -2 -19 0 -33 6
-14 5 -36 9 -48 8 -14 -2 -34 7 -48 20 -22 21 -25 21 -42 6 -23 -21 -46 -22
-38 -2 3 8 1 15 -3 15 -5 0 -11 -5 -13 -11 -4 -12 -58 -1 -58 12 0 18 -39 8
-55 -13 -13 -20 -17 -21 -25 -8 -9 13 -13 12 -28 -5 -9 -11 -25 -19 -35 -17
-9 2 -20 -4 -23 -12 -3 -9 -10 -13 -15 -10 -5 3 -6 -2 -3 -10 3 -9 1 -16 -5
-16 -7 0 -14 7 -17 15 -7 17 -34 21 -34 4 0 -23 -23 -1 -26 25 -4 35 -12 45
-24 26 -7 -11 -13 -12 -35 -2 -16 8 -24 8 -20 2 8 -13 -45 -65 -62 -62 -7 2
-13 -2 -13 -7 0 -5 -12 -9 -26 -8 -15 1 -29 -4 -31 -10 -3 -8 4 -13 17 -13 12
0 18 -4 15 -11 -4 -6 -22 -8 -44 -5 -52 8 -76 -12 -68 -59 4 -25 2 -35 -7 -35
-7 0 -21 -9 -31 -20 -10 -11 -23 -20 -28 -20 -17 0 -91 -83 -114 -127 -11 -24
-17 -43 -11 -43 5 0 6 -9 3 -21 -5 -14 -3 -19 3 -15 15 9 9 -31 -10 -74 -9
-19 -16 -42 -15 -52 1 -20 24 -12 30 10 4 16 5 16 6 0 0 -9 -5 -23 -13 -31
-18 -17 -16 -98 2 -112 10 -8 8 -16 -11 -39 -23 -26 -23 -30 -10 -57 12 -23
12 -33 3 -44 -11 -14 -5 -56 8 -54 18 3 32 -2 32 -11 0 -5 -13 -10 -30 -10
-28 0 -42 -14 -21 -22 15 -5 18 -53 4 -50 -16 3 -16 -3 -2 -30 9 -17 9 -20 -2
-16 -11 4 -15 -7 -16 -44 -2 -27 -7 -58 -13 -68 -7 -13 -7 -21 0 -25 5 -3 10
-19 10 -35 0 -16 4 -31 9 -35 12 -7 5 -69 -8 -73 -5 -2 -19 -12 -32 -23 -31
-26 -39 -24 -39 12 0 26 -3 29 -20 24 -15 -5 -20 -2 -20 14 0 11 -13 34 -30
52 -16 18 -27 36 -24 40 2 5 -10 25 -28 46 -18 21 -42 55 -52 76 -11 20 -25
37 -32 37 -6 0 -17 13 -22 30 -6 16 -20 40 -32 52 -34 37 -62 100 -42 97 19
-3 22 3 11 22 -6 12 -7 24 -3 28 11 8 13 51 3 51 -7 0 -6 80 1 100 1 3 1 38 1
78 0 39 4 72 9 72 6 0 10 6 10 13 0 7 9 29 20 50 11 20 20 43 20 51 0 9 7 12
20 9 17 -5 18 -2 10 26 -8 29 -7 31 16 31 15 0 24 6 24 15 0 9 11 27 25 41 14
14 25 29 25 33 0 5 14 14 30 20 28 9 42 31 20 31 -5 0 -10 5 -10 11 0 8 15 10
45 7 l44 -5 -3 49 c-2 35 1 51 11 55 20 8 16 23 -7 23 -11 0 -20 5 -20 10 0 6
7 10 16 10 24 0 54 -19 54 -35 0 -8 4 -15 10 -15 5 0 9 3 9 8 -3 20 2 32 16
32 19 0 19 15 0 44 -14 21 -14 23 7 22 13 -1 27 -7 31 -13 17 -26 24 -11 20
42 -3 43 -1 55 11 55 14 0 32 47 22 58 -3 3 8 14 25 24 24 14 29 23 24 39 -5
14 -3 19 3 15 6 -3 14 -1 18 5 4 7 3 9 -3 6 -5 -3 -17 3 -26 13 -11 13 -12 20
-4 23 9 3 9 9 0 25 -8 13 -9 23 -3 27 6 3 10 17 10 30 0 33 10 55 25 55 7 0
15 12 18 27 5 26 4 26 -9 9 -19 -27 -30 -11 -14 20 12 22 12 27 0 34 -12 8
-13 13 -3 28 7 12 8 23 2 29 -5 5 -13 24 -18 41 -8 26 -6 34 7 42 16 9 16 11
0 24 -10 7 -18 16 -18 21 0 4 -9 18 -19 31 -11 14 -17 33 -14 44 3 11 1 20 -5
20 -16 0 -54 72 -49 92 3 12 -7 31 -29 54 -18 20 -32 41 -31 47 1 6 -3 11 -10
12 -13 0 -53 48 -53 64 0 16 -41 39 -99 57 -54 16 -56 19 -37 64 5 13 -1 15
-35 12 -22 -2 -43 -10 -46 -18 -3 -8 -9 -14 -15 -14 -5 0 -7 4 -4 9 4 5 0 12
-6 14 -8 4 -7 6 4 6 21 1 30 15 22 35 -7 19 -40 21 -48 4 -3 -7 -3 -1 1 15 4
22 2 26 -11 21 -10 -4 -16 -1 -16 8 0 8 -17 20 -37 26 -33 10 -39 9 -61 -13
-30 -30 -47 -33 -32 -5 9 17 8 20 -12 21 -13 0 -32 2 -43 4 -78 14 -101 12
-119 -6z m-219 -95 c-3 -3 -12 -4 -19 -1 -8 3 -5 6 6 6 11 1 17 -2 13 -5z m98
-3 c3 -5 1 -12 -5 -16 -5 -3 -10 1 -10 9 0 18 6 21 15 7z m116 -84 c-16 -16
-26 0 -10 19 9 11 15 12 17 4 2 -6 -1 -17 -7 -23z m386 -59 c-3 -8 -6 -5 -6 6
-1 11 2 17 5 13 3 -3 4 -12 1 -19z m-812 -8 c3 -5 1 -10 -4 -10 -6 0 -11 5
-11 10 0 6 2 10 4 10 3 0 8 -4 11 -10z m684 -156 c14 -32 -5 -29 -27 4 -13 19
-13 22 0 22 8 0 20 -12 27 -26z m-464 -24 c-3 -5 -12 -10 -18 -10 -7 0 -6 4 3
10 19 12 23 12 15 0z m558 -7 c4 -2 7 -8 7 -14 0 -17 -35 -9 -53 11 -17 20
-16 20 10 14 16 -4 31 -9 36 -11z m197 -163 c0 -5 -4 -10 -9 -10 -6 0 -13 5
-16 10 -3 6 1 10 9 10 9 0 16 -4 16 -10z m-530 -38 c0 -14 -11 -21 -26 -15 -8
3 -11 9 -8 14 7 11 34 12 34 1z m220 -62 c0 -5 -4 -10 -10 -10 -5 0 -10 5 -10
10 0 6 5 10 10 10 6 0 10 -4 10 -10z m-10 -74 c0 -3 -4 -8 -10 -11 -5 -3 -10
-1 -10 4 0 6 5 11 10 11 6 0 10 -2 10 -4z m140 -56 c0 -5 -5 -10 -11 -10 -5 0
-7 5 -4 10 3 6 8 10 11 10 2 0 4 -4 4 -10z m130 -130 c0 -5 -2 -10 -4 -10 -3
0 -8 5 -11 10 -3 6 -1 10 4 10 6 0 11 -4 11 -10z m35 -10 c-3 -5 -12 -10 -18
-10 -7 0 -6 4 3 10 19 12 23 12 15 0z m-570 -10 c3 -5 1 -10 -4 -10 -6 0 -11
5 -11 10 0 6 2 10 4 10 3 0 8 -4 11 -10z m368 -16 c15 -6 25 -24 13 -24 -17 0
-56 22 -56 31 0 6 6 8 13 5 6 -3 20 -9 30 -12z m325 -10 c14 -15 14 -16 -3
-13 -10 2 -20 10 -23 17 -5 17 6 15 26 -4z m-478 -14 c0 -5 -5 -10 -11 -10 -5
0 -7 5 -4 10 3 6 8 10 11 10 2 0 4 -4 4 -10z m260 -30 c0 -5 -9 -10 -21 -10
-11 0 -17 5 -14 10 3 6 13 10 21 10 8 0 14 -4 14 -10z m-193 -6 c-3 -3 -12 -4
-19 -1 -8 3 -5 6 6 6 11 1 17 -2 13 -5z m-972 -164 c3 -5 1 -10 -4 -10 -6 0
-11 5 -11 10 0 6 2 10 4 10 3 0 8 -4 11 -10z m1382 -56 c-3 -3 -12 -4 -19 -1
-8 3 -5 6 6 6 11 1 17 -2 13 -5z m933 -44 c0 -5 -4 -10 -10 -10 -5 0 -10 5
-10 10 0 6 5 10 10 10 6 0 10 -4 10 -10z m-60 -3 c0 -2 -10 -12 -22 -23 l-23
-19 19 23 c18 21 26 27 26 19z m-80 -17 c0 -5 -5 -10 -11 -10 -5 0 -7 5 -4 10
3 6 8 10 11 10 2 0 4 -4 4 -10z m-162 -72 c-3 -7 4 -20 15 -28 19 -15 18 -16
-17 -12 -40 5 -40 5 -26 33 12 21 34 27 28 7z m357 -37 c3 -5 1 -12 -5 -16 -5
-3 -10 1 -10 9 0 18 6 21 15 7z m-35 -30 c0 -5 -7 -14 -15 -21 -16 -14 -18
-10 -9 14 6 17 24 22 24 7z m-240 -21 c0 -5 -4 -10 -9 -10 -6 0 -13 5 -16 10
-3 6 1 10 9 10 9 0 16 -4 16 -10z m250 -19 c0 -5 -7 -12 -16 -15 -24 -9 -28
-7 -14 9 14 17 30 20 30 6z m-63 -7 c-3 -3 -12 -4 -19 -1 -8 3 -5 6 6 6 11 1
17 -2 13 -5z m433 -104 c0 -5 -5 -10 -11 -10 -5 0 -7 5 -4 10 3 6 8 10 11 10
2 0 4 -4 4 -10z m-710 -25 c0 -10 -10 -15 -30 -15 -16 0 -30 4 -30 9 0 5 8 7
19 4 10 -3 22 0 25 6 10 15 16 14 16 -4z m90 -135 c0 -5 -4 -10 -10 -10 -5 0
-10 5 -10 10 0 6 5 10 10 10 6 0 10 -4 10 -10z m1212 -6 c-12 -8 -22 -24 -22
-36 0 -13 -5 -18 -13 -15 -15 6 -41 -29 -32 -43 3 -5 -6 -17 -20 -26 -14 -9
-25 -22 -25 -28 0 -6 -12 -13 -27 -14 -24 -1 -25 0 -10 9 24 14 21 29 -6 29
-13 0 -26 3 -30 6 -8 8 22 54 35 54 15 0 78 31 117 57 37 25 69 32 33 7z
m-1168 -20 c9 -22 8 -24 -9 -24 -8 0 -15 9 -15 20 0 24 15 27 24 4z m666 -40
c0 -8 -2 -14 -4 -14 -2 0 -13 -3 -23 -6 -14 -6 -16 -4 -6 6 6 7 9 19 6 26 -4
10 0 12 11 8 9 -3 16 -12 16 -20z m568 -2 c2 -7 -6 -12 -17 -12 -21 0 -27 11
-14 24 9 9 26 2 31 -12z m-784 -7 c3 -8 1 -15 -3 -15 -5 0 -11 7 -15 15 -3 8
-1 15 3 15 5 0 11 -7 15 -15z m-37 -60 c-32 -28 -49 -32 -41 -10 4 8 12 15 20
15 8 0 14 5 14 10 0 6 8 10 18 10 13 -1 11 -6 -11 -25z m-460 -47 c-3 -8 -6
-5 -6 6 -1 11 2 17 5 13 3 -3 4 -12 1 -19z m1763 -8 c0 -5 -4 -10 -10 -10 -5
0 -10 5 -10 10 0 6 5 10 10 10 6 0 10 -4 10 -10z m-2359 -9 c0 8 4 5 8 -6 11
-29 -14 -52 -34 -31 -19 19 -9 52 11 35 11 -9 14 -8 15 2z m882 -58 c-4 -11
-8 -11 -22 -1 -26 21 -31 31 -19 45 8 10 14 8 28 -9 10 -12 15 -28 13 -35z
m1467 37 c0 -5 -5 -10 -11 -10 -5 0 -7 5 -4 10 3 6 8 10 11 10 2 0 4 -4 4 -10z
m-1767 -77 c8 -7 -25 -33 -35 -27 -4 3 -5 11 -1 19 5 16 25 20 36 8z m1077
-44 c4 -17 13 -24 31 -25 15 -1 31 -4 38 -8 6 -4 11 -2 11 4 0 6 5 8 10 5 6
-4 8 -11 5 -16 -4 -5 0 -9 7 -9 9 0 9 -3 -2 -10 -12 -8 -11 -10 8 -10 13 0 22
-5 20 -12 -5 -28 13 -68 30 -68 43 0 46 -47 6 -87 -8 -9 -13 -21 -10 -28 6
-18 -30 -49 -48 -42 -9 4 -18 2 -21 -3 -8 -13 -45 -13 -45 -1 0 5 -10 11 -22
13 -12 2 -28 14 -35 28 -20 40 -36 60 -50 60 -7 0 -13 6 -13 14 0 7 -7 19 -15
26 -8 7 -15 21 -15 32 0 10 -7 30 -16 43 -19 29 -15 69 7 73 16 3 20 -30 6
-44 -10 -11 -8 -24 3 -24 6 0 10 7 10 15 0 8 4 15 9 15 5 0 12 11 15 24 3 14
15 28 26 31 11 3 20 13 20 22 0 23 24 9 30 -18z m-1077 -34 c-3 -9 -8 -14 -10
-11 -3 3 -2 9 2 15 9 16 15 13 8 -4z m1562 -105 c3 -5 1 -10 -4 -10 -6 0 -11
5 -11 10 0 6 2 10 4 10 3 0 8 -4 11 -10z m185 -59 c-6 -12 -15 -21 -21 -21 -5
0 -2 11 8 24 21 28 29 27 13 -3z m-345 -11 c3 -5 -1 -10 -9 -10 -9 0 -16 5
-16 10 0 6 4 10 9 10 6 0 13 -4 16 -10z m-365 -46 c0 -8 -4 -12 -10 -9 -5 3
-10 10 -10 16 0 5 5 9 10 9 6 0 10 -7 10 -16z m-775 -114 c3 -5 1 -10 -4 -10
-6 0 -11 5 -11 10 0 6 2 10 4 10 3 0 8 -4 11 -10z m-648 -36 c4 -10 -1 -22
-11 -29 -18 -14 -5 -32 14 -20 6 3 19 3 30 0 18 -6 18 -8 5 -21 -18 -19 -20
-35 -2 -29 17 7 41 -11 33 -24 -4 -6 -12 -9 -17 -6 -5 4 -9 -3 -9 -13 0 -11
-7 -25 -15 -32 -26 -21 -16 -31 13 -13 15 10 29 20 32 24 11 13 35 15 47 4 20
-21 36 -90 25 -111 -9 -17 -6 -19 33 -20 54 -2 93 -29 97 -68 3 -28 4 -29 20
-13 12 13 22 15 35 8 10 -5 35 -17 56 -27 20 -10 37 -21 37 -25 0 -3 17 -2 38
4 45 12 74 4 66 -17 -4 -10 6 -15 43 -18 26 -2 50 -1 53 4 11 14 73 35 91 31
11 -3 19 -14 19 -27 0 -17 2 -18 10 -6 8 12 11 13 19 1 5 -7 6 -22 3 -34 -4
-17 -1 -19 22 -15 25 5 27 3 23 -19 -6 -34 19 -56 58 -50 26 4 37 -1 73 -38
31 -32 39 -46 30 -52 -18 -11 -38 -49 -38 -72 0 -20 -28 -24 -43 -6 -5 6 -6 1
-3 -11 7 -24 -26 -64 -52 -64 -10 0 -27 -7 -38 -15 -15 -12 -16 -16 -5 -24 11
-7 11 -12 0 -32 -16 -29 -19 -71 -4 -66 5 2 9 16 7 30 -2 19 1 27 12 27 22 0
27 -15 16 -44 -6 -16 -17 -26 -30 -26 -11 0 -23 -8 -27 -17 -3 -10 -12 -25
-19 -33 -7 -8 -14 -33 -16 -55 -2 -27 -7 -39 -16 -37 -10 2 -11 -4 -6 -20 6
-19 5 -21 -8 -11 -8 7 -18 10 -21 6 -4 -3 1 -12 11 -19 16 -12 16 -14 -3 -28
-12 -8 -22 -27 -23 -47 -3 -36 -18 -51 -44 -45 -19 4 -30 -16 -22 -39 4 -9 0
-15 -10 -15 -9 0 -17 -8 -18 -17 -6 -68 -20 -133 -27 -129 -3 2 -6 -12 -7 -32
0 -24 -8 -41 -23 -54 -20 -15 -21 -21 -11 -33 11 -13 9 -20 -13 -43 -15 -16
-27 -36 -27 -45 0 -9 -5 -17 -11 -17 -6 0 -8 -11 -4 -28 9 -41 -10 -83 -32
-75 -15 6 -16 4 -6 -8 17 -21 24 -69 10 -69 -27 1 -50 29 -45 55 4 18 1 25
-10 25 -25 0 -52 31 -52 61 0 15 -5 31 -10 34 -6 4 -8 11 -4 16 3 5 6 62 7
127 0 85 -3 116 -11 115 -7 -2 -12 2 -12 7 0 6 4 10 9 10 11 0 -15 56 -29 65
-6 4 -4 14 3 25 9 16 9 24 -1 41 -8 12 -10 25 -4 32 7 10 8 40 3 90 -1 4 -8 7
-16 7 -11 0 -13 8 -9 30 4 18 1 36 -6 45 -10 12 -10 19 -2 27 16 16 15 43 -3
58 -20 17 -19 32 3 29 31 -3 32 1 12 34 -25 40 -25 57 -1 57 24 0 36 29 16 36
-8 4 -15 14 -15 23 0 10 -12 28 -27 40 -23 21 -24 24 -9 33 11 6 15 16 11 29
-4 10 -2 19 3 19 14 0 2 43 -15 53 -12 7 -12 11 2 21 13 9 14 17 6 39 -6 15
-18 27 -28 27 -20 0 -53 51 -53 80 0 10 9 25 21 33 l20 15 -21 15 c-12 9 -29
13 -36 10 -8 -3 -14 1 -14 10 0 9 -9 19 -20 22 -11 3 -20 11 -20 16 0 6 8 6
20 -1 21 -11 23 -10 14 13 -3 9 -13 13 -26 9 -15 -3 -19 -1 -16 9 3 8 13 13
23 11 15 -3 17 1 11 29 -3 18 -1 37 5 45 8 10 6 13 -8 12 -10 -1 -30 2 -45 5
-17 5 -28 3 -28 -3 0 -5 -5 -10 -11 -10 -6 0 -9 7 -5 15 7 20 -23 83 -43 88
-10 3 -8 5 6 6 24 1 48 35 37 52 -3 6 -18 10 -32 9 -41 -3 -45 -1 -32 15 6 8
8 20 4 26 -8 13 21 39 43 39 8 0 16 -7 20 -16z m-264 -124 c2 -9 0 -25 -5 -34
-6 -10 -5 -16 2 -16 8 0 8 -6 0 -20 -6 -11 -15 -18 -20 -15 -6 3 -7 -1 -4 -10
5 -12 0 -14 -24 -12 -17 2 -38 9 -46 17 -18 14 -21 40 -6 40 6 0 16 12 23 28
6 15 18 32 26 38 19 15 48 6 54 -16z m2577 20 c0 -5 -7 -10 -15 -10 -8 0 -15
5 -15 10 0 6 7 10 15 10 8 0 15 -4 15 -10z m-43 -26 c-7 -7 -37 7 -37 17 0 6
9 5 21 -1 11 -7 19 -14 16 -16z m53 -64 c0 -5 -4 -10 -10 -10 -5 0 -10 5 -10
10 0 6 5 10 10 10 6 0 10 -4 10 -10z m-2579 -33 c-1 -12 -15 -9 -19 4 -3 6 1
10 8 8 6 -3 11 -8 11 -12z m2309 -32 c0 -3 -5 -12 -12 -19 -13 -14 -48 -10
-48 5 0 5 7 6 15 3 8 -4 15 -1 15 5 0 6 7 11 15 11 8 0 15 -2 15 -5z m-2040
-35 c0 -13 -11 -13 -30 0 -12 8 -11 10 8 10 12 0 22 -4 22 -10z m2164 -15 c11
-8 16 -18 11 -22 -4 -5 -10 -2 -12 5 -4 10 -9 9 -24 -4 -18 -16 -19 -16 -19 9
0 30 15 34 44 12z m56 11 c0 -2 -7 -9 -15 -16 -12 -10 -15 -10 -15 4 0 9 7 16
15 16 8 0 15 -2 15 -4z m253 -35 c4 -4 -12 -8 -36 -7 -33 1 -41 4 -33 13 11
13 54 9 69 -6z m-223 -30 c0 -12 -20 -25 -27 -18 -7 7 6 27 18 27 5 0 9 -4 9
-9z m187 3 c-3 -3 -12 -4 -19 -1 -8 3 -5 6 6 6 11 1 17 -2 13 -5z m-487 -8 c0
-2 -9 -6 -20 -9 -11 -3 -20 -1 -20 4 0 5 9 9 20 9 11 0 20 -2 20 -4z m-1310
-31 c0 -8 -7 -15 -16 -15 -14 0 -14 3 -4 15 7 8 14 15 16 15 2 0 4 -7 4 -15z
m1498 -35 c-29 -23 -35 -10 -12 25 15 23 19 24 26 10 7 -11 3 -21 -14 -35z
m-1543 10 c-3 -5 -10 -10 -16 -10 -5 0 -9 5 -9 10 0 6 7 10 16 10 8 0 12 -4 9
-10z m289 -35 c3 -8 1 -15 -4 -15 -6 0 -10 7 -10 15 0 8 2 15 4 15 2 0 6 -7
10 -15z m1473 -87 c-3 -8 -6 -5 -6 6 -1 11 2 17 5 13 3 -3 4 -12 1 -19z
m-2532 -17 c-7 -24 -20 -27 -39 -9 -11 11 -9 15 13 24 31 13 35 12 26 -15z
m2673 -49 c2 -15 -2 -22 -13 -22 -9 0 -14 4 -10 9 3 5 1 12 -5 16 -13 8 -2 27
13 22 7 -2 13 -13 15 -25z m-368 -27 c0 -5 -5 -3 -10 5 -5 8 -10 20 -10 25 0
6 5 3 10 -5 5 -8 10 -19 10 -25z m-2316 -10 c-4 -8 -8 -15 -10 -15 -2 0 -4 7
-4 15 0 8 4 15 10 15 5 0 7 -7 4 -15z m2506 -47 l0 -33 -14 25 c-13 26 -12 40
5 40 5 0 9 -15 9 -32z m95 22 c3 -5 1 -10 -4 -10 -6 0 -11 5 -11 10 0 6 2 10
4 10 3 0 8 -4 11 -10z m-4935 -80 c0 -5 -5 -10 -11 -10 -5 0 -7 5 -4 10 3 6 8
10 11 10 2 0 4 -4 4 -10z m4757 -65 c6 -14 9 -25 6 -25 -7 0 -32 33 -33 43 0
16 16 5 27 -18z m-767 -435 c0 -5 -4 -10 -10 -10 -5 0 -10 5 -10 10 0 6 5 10
10 10 6 0 10 -4 10 -10z m280 -10 c0 -5 -8 -10 -17 -10 -15 0 -16 2 -3 10 19
12 20 12 20 0z m-1050 -294 c0 -3 -4 -8 -10 -11 -5 -3 -10 -1 -10 4 0 6 5 11
10 11 6 0 10 -2 10 -4z m-1690 -106 c4 0 6 -9 3 -20 -6 -22 -30 -21 -25 0 2 7
-3 17 -10 23 -9 6 -8 7 5 3 10 -3 22 -6 27 -6z m10 -103 c0 -5 -4 -5 -10 -2
-5 3 -10 14 -10 23 0 15 2 15 10 2 5 -8 10 -19 10 -23z m2497 17 c-3 -3 -12
-4 -19 -1 -8 3 -5 6 6 6 11 1 17 -2 13 -5z m648 -4 c3 -5 -1 -10 -9 -10 -9 0
-16 5 -16 10 0 6 4 10 9 10 6 0 13 -4 16 -10z m-1175 -60 c0 -5 -2 -10 -4 -10
-3 0 -8 5 -11 10 -3 6 -1 10 4 10 6 0 11 -4 11 -10z m1235 -20 c-3 -5 -10 -10
-16 -10 -5 0 -9 5 -9 10 0 6 7 10 16 10 8 0 12 -4 9 -10z m-3135 -14 c0 -11
-19 -15 -25 -6 -3 5 1 10 9 10 9 0 16 -2 16 -4z m3370 -260 c0 -3 -4 -8 -10
-11 -5 -3 -10 -1 -10 4 0 6 5 11 10 11 6 0 10 -2 10 -4z"/>
<path d="M2996 1955 c-3 -8 -1 -15 4 -15 6 0 10 5 10 11 0 5 5 7 10 4 6 -3 10
-1 10 4 0 17 -27 13 -34 -4z"/>
<path d="M3500 1799 c0 -5 5 -7 10 -4 6 3 10 8 10 11 0 2 -4 4 -10 4 -5 0 -10
-5 -10 -11z"/>
<path d="M3635 1720 c-3 -5 -1 -10 4 -10 6 0 11 5 11 10 0 6 -2 10 -4 10 -3 0
-8 -4 -11 -10z"/>
<path d="M965 3720 c3 -5 8 -10 11 -10 2 0 4 5 4 10 0 6 -5 10 -11 10 -5 0 -7
-4 -4 -10z"/>
<path d="M2974 3634 c3 -8 2 -12 -4 -9 -5 3 -14 -4 -20 -15 -13 -24 -3 -47 13
-31 7 7 16 7 30 -1 15 -7 22 -7 28 3 6 9 3 15 -7 17 -8 2 -13 9 -11 15 4 12
-16 37 -28 37 -4 0 -4 -7 -1 -16z"/>
<path d="M5245 3596 c-60 -32 -66 -37 -59 -47 4 -6 15 -3 28 9 11 10 36 25 54
33 17 8 32 17 32 21 0 11 -10 8 -55 -16z"/>
<path d="M3045 3600 c-3 -5 1 -10 9 -10 9 0 16 5 16 10 0 6 -4 10 -9 10 -6 0
-13 -4 -16 -10z"/>
<path d="M5108 3519 c-20 -10 -39 -22 -42 -27 -11 -17 39 0 69 24 35 28 25 29
-27 3z"/>
<path d="M4980 3464 c-19 -19 -40 -34 -47 -34 -7 0 -13 -4 -13 -10 0 -16 12
-12 60 20 25 16 51 30 58 30 6 0 12 5 12 11 0 6 -6 9 -14 6 -8 -3 -16 -2 -18
3 -2 5 -19 -7 -38 -26z"/>
<path d="M4843 3388 c-31 -15 -29 -30 2 -16 14 6 25 15 25 20 0 9 1 10 -27 -4z"/>
<path d="M4764 3345 c-17 -13 -16 -14 14 -4 33 11 41 19 19 19 -7 0 -22 -7
-33 -15z"/>
<path d="M4625 3285 c-39 -32 -21 -32 30 0 29 18 35 24 20 24 -11 0 -33 -11
-50 -24z"/>
<path d="M2420 2870 c0 -5 5 -10 11 -10 5 0 7 5 4 10 -3 6 -8 10 -11 10 -2 0
-4 -4 -4 -10z"/>
</g>
</svg>
